<?xml version="1.0" standalone="no"?>
<!DOCTYPE svg PUBLIC "-//W3C//DTD SVG 20010904//EN"
 "http://www.w3.org/TR/2001/REC-SVG-20010904/DTD/svg10.dtd">
<svg version="1.0" xmlns="http://www.w3.org/2000/svg"
 width="308.000000pt" height="308.000000pt" viewBox="0 0 308.000000 308.000000"
 preserveAspectRatio="xMidYMid meet">
<metadata>
Created by potrace 1.13, written by Peter Selinger 2001-2015
</metadata>
<g transform="translate(0.000000,308.000000) scale(0.100000,-0.100000)"
fill="#000000" stroke="none">
<path d="M0 1540 l0 -1540 1540 0 1540 0 0 1540 0 1540 -1540 0 -1540 0 0
-1540z m1835 1422 c571 -124 999 -553 1127 -1130 30 -131 32 -432 5 -565 -118
-581 -551 -1020 -1135 -1149 -131 -30 -432 -32 -565 -5 -586 119 -1036 568
-1154 1154 -25 123 -25 423 0 546 122 605 597 1063 1204 1162 123 20 397 13
518 -13z"/>
<path d="M1415 2934 c-338 -37 -626 -173 -861 -408 -272 -273 -408 -601 -408
-986 0 -385 136 -713 408 -986 273 -272 601 -408 986 -408 385 0 713 136 986
408 272 273 408 601 408 986 0 385 -136 713 -408 986 -208 208 -446 333 -736
389 -85 16 -300 27 -375 19z m217 -374 c720 -68 1147 -835 824 -1478 -255
-506 -870 -711 -1374 -458 -506 255 -711 870 -458 1374 157 312 468 528 806
561 47 5 87 9 90 10 3 0 53 -4 112 -9z"/>
<path d="M1395 2503 c-122 -19 -281 -81 -390 -152 -90 -58 -218 -186 -276
-276 -52 -79 -109 -209 -135 -305 -26 -93 -26 -367 0 -460 49 -178 136 -331
260 -456 125 -124 278 -211 456 -260 93 -26 367 -26 460 0 178 49 331 136 456
260 93 94 156 187 207 306 62 148 71 196 71 380 0 184 -9 232 -71 380 -96 226
-277 410 -501 508 -132 58 -203 73 -362 77 -80 2 -158 1 -175 -2z m-95 -686
c0 -52 -2 -56 -170 -296 -93 -133 -170 -244 -170 -247 0 -2 79 -4 175 -4 l175
0 0 -65 0 -65 -275 0 -275 0 0 49 c0 46 6 57 175 297 l176 249 -171 3 -170 2
0 65 0 65 265 0 265 0 0 -53z m242 -152 c26 -110 53 -230 60 -267 12 -64 28
-92 28 -48 0 18 82 349 116 468 l16 53 76 -3 76 -3 63 -245 c34 -135 63 -255
63 -267 0 -13 5 -23 10 -23 6 0 10 10 11 23 0 12 26 132 57 267 l58 245 77 3
c53 2 77 -1 77 -9 0 -10 -106 -431 -162 -642 l-20 -78 -92 3 -91 3 -43 165
c-24 91 -54 210 -67 265 -13 55 -24 91 -24 80 0 -11 -29 -131 -63 -267 l-63
-248 -92 0 c-51 0 -93 3 -93 6 0 4 -40 164 -90 356 -49 191 -90 353 -90 359 0
6 29 9 77 7 l77 -3 48 -200z"/>
</g>
</svg>
